PathFileType	4	(X/Y/Z)	C:\Users\Admin\Desktop\Capture Files\05302019 Reflex Trials\StaticTrial_1-Unnamed.trc
DataRate	CameraRate	NumFrames	NumMarkers	Units	OrigDataRate	OrigDataStartFrame	OrigNumFrames
300.00	300.00	      12	0	mm	300.00	569	      1137
Frame#	Time	
		

569	1.893	579.27856	-624.20862	918.12054				497.98157	-499.44342	874.61499	896.03864	-724.05664	1115.80310	432.10028	-312.69006	455.70200	179.96306	-512.66339	611.07935	157.94771	-529.00177	409.47308	822.69238	-765.52997	1021.71069	290.97507	-499.36575	729.64441				182.80569	-589.03949	725.06134	370.86615	-425.40213	715.03632	499.82938	-364.86118	739.30206				428.52777	-327.08182	639.96191	
570	1.897	579.30792	-624.21375	918.11011				497.98340	-499.43445	874.63416	896.02515	-724.05786	1115.81921	432.10873	-312.67755	455.71365	179.95531	-512.65820	611.07642	157.92815	-529.00220	409.48553	822.73737	-765.57086	1021.70428	290.96716	-499.37564	729.65637				182.80659	-589.03796	725.05756	370.86322	-425.41245	715.03424	499.85883	-364.87616	739.30493				428.53787	-327.07925	639.95020	
571	1.900	579.30322	-624.22003	918.11145				497.97845	-499.43417	874.62677	895.98120	-723.99017	1115.84302	432.10587	-312.68582	455.69412	179.95438	-512.66632	611.08398	157.94322	-529.01514	409.48520	822.72260	-765.52722	1021.73492	290.97290	-499.34705	729.65656				182.81389	-589.04004	725.07861	370.88211	-425.43439	715.02197	499.84723	-364.86090	739.30823				428.54034	-327.07874	639.95941	
572	1.903	579.29987	-624.21033	918.11572				497.99039	-499.42896	874.60852	895.94629	-723.97223	1115.83350	432.08499	-312.69009	455.68887	179.95264	-512.65668	611.07782	157.95953	-529.01135	409.47638	822.74597	-765.54340	1021.70801	290.96732	-499.33051	729.65320				182.79315	-589.03223	725.06543	370.88223	-425.42761	715.02863	499.84973	-364.88315	739.29572				428.53247	-327.07449	639.93939	
573	1.907	579.28851	-624.18933	918.10040				497.98740	-499.41415	874.61206	895.94727	-723.98132	1115.83496	432.08624	-312.69016	455.68845	179.95862	-512.65955	611.09521	157.94690	-529.01514	409.48627	822.72925	-765.51910	1021.77032	290.95901	-499.34293	729.68353				182.81412	-589.02893	725.06067	370.86148	-425.40204	715.02942	499.83774	-364.86703	739.29529				428.53607	-327.07474	639.94556	
574	1.910	579.29700	-624.20081	918.10187				497.98080	-499.42038	874.61035	895.98169	-723.97821	1115.84949	432.08563	-312.69211	455.69458	179.97400	-512.66479	611.08002	157.95296	-529.01459	409.48593	822.77991	-765.59155	1021.75488	290.99878	-499.37964	729.64087				182.82222	-589.03162	725.06396	370.87292	-425.41528	715.02826	499.85104	-364.86115	739.29156				428.54556	-327.08331	639.94006	
575	1.913	579.31665	-624.19818	918.11761				497.98770	-499.41617	874.61322	895.94940	-723.96375	1115.84412	432.08429	-312.69882	455.68036	179.96280	-512.63849	611.09680	157.94048	-528.99652	409.48511	822.72314	-765.56055	1021.77844	290.21048	-498.72873	730.16846				182.83102	-589.04132	725.05286	370.87604	-425.41772	715.02411	499.85220	-364.86270	739.28009				428.55371	-327.07639	639.94659	
576	1.917	579.30548	-624.19611	918.12030				497.99753	-499.41827	874.60461	896.01776	-724.02136	1115.85144	432.08676	-312.71634	455.67795	179.95216	-512.63367	611.08508	157.93166	-528.99927	409.49374	822.69019	-765.48553	1021.74231	290.20621	-498.73608	730.15479				182.84018	-589.04639	725.07727	370.87067	-425.40411	715.02295	499.85126	-364.87457	739.28461				428.54080	-327.06998	639.94702	
577	1.920	579.31683	-624.19989	918.10846				497.98392	-499.41016	874.61359	895.91876	-723.89001	1115.84717	432.06696	-312.69913	455.68274	179.95956	-512.64520	611.09515	157.95081	-529.00977	409.47040	822.68024	-765.48621	1021.75031	290.22617	-498.73416	730.15619				182.83885	-589.00452	725.05237	370.87537	-425.42999	715.01544	499.85767	-364.87067	739.28455				428.51852	-327.08231	639.93011	
578	1.923	579.29840	-624.15033	918.10760				497.99960	-499.40695	874.61108	895.98395	-723.98151	1115.83997	432.07166	-312.70126	455.66339	179.96397	-512.62036	611.08820	157.92824	-528.98163	409.49292	822.69189	-765.49182	1021.76825	290.21457	-498.72388	730.15735				182.83392	-589.00842	725.06207	370.87476	-425.42508	715.02075	499.86810	-364.87000	739.29059				428.53885	-327.08026	639.93219	
579	1.927	579.32141	-624.17303	918.09723				497.99606	-499.41470	874.60400	895.96460	-723.96692	1115.86157	432.06403	-312.68710	455.68921	179.97414	-512.65753	611.08917	157.95120	-529.01453	409.46948	822.65906	-765.44879	1021.75409	290.98001	-499.32425	729.65509				182.82018	-589.00751	725.08429	370.87003	-425.40436	715.03851	499.85043	-364.85364	739.28229				428.53638	-327.07883	639.92670	
580	1.930	579.32373	-624.18530	918.11725				498.00079	-499.41129	874.60712	895.89960	-723.89282	1115.83691	432.06073	-312.69904	455.67538	179.95784	-512.64923	611.08618	157.94611	-528.99963	409.48276	822.71545	-765.50372	1021.77173	290.99347	-499.34177	729.64270				182.83147	-589.00049	725.06689	370.84866	-425.40695	715.02631	499.85321	-364.85132	739.26794				428.55521	-327.08640	639.94000	
